<svg xmlns="http://www.w3.org/2000/svg" data-name="Layer 2" viewBox="0 0 100 125" x="0px" y="0px"><title>Created by Postcat Studio</title><path d="M92.61,29.26c-2.69-5.84,0-14.5.06-14.59a1.41,1.41,0,0,0-1.35-1.85c-6.3,0-16.72,7.82-16.72,16.72,0,4.56-3.29,9.35-5.76,12.31a31.33,31.33,0,0,0-9.94-5.12V33.27a1.41,1.41,0,0,0-1.41-1.41h-15a1.41,1.41,0,0,0-1.41,1.41v3.46a31.32,31.32,0,0,0-9.94,5.12c-2.47-3-5.75-7.75-5.75-12.31,0-8.91-10.42-16.72-16.72-16.72A1.41,1.41,0,0,0,7.3,14.67c0,.09,2.76,8.73.06,14.59C3.93,36.74,1.95,55.62,17.75,64.15a38.59,38.59,0,0,0-.6,5.51H15a1.41,1.41,0,0,0-1.41,1.41v15A1.41,1.41,0,0,0,15,87.49H85a1.41,1.41,0,0,0,1.41-1.41v-15A1.41,1.41,0,0,0,85,69.67H82.82a38.53,38.53,0,0,0-.6-5.51C98,55.62,96,36.74,92.61,29.26Zm-15.18.29c0-6.21,6.87-12.3,12-13.63-.73,3.24-1.67,9.55.62,14.52C92,34.63,96.21,52.76,81.6,61.28c0-.08-.05-.16-.07-.24A36.26,36.26,0,0,0,71,43.66C73.76,40.37,77.43,35,77.43,29.55Zm-67.5.89c2.29-5,1.35-11.29.62-14.52,5.12,1.33,12,7.42,12,13.63,0,5.41,3.67,10.82,6.39,14.12-.57.52-1.12,1.06-1.65,1.61a36.2,36.2,0,0,0-8.13,13.43l0,.11c-.25.74-.47,1.49-.68,2.25l-.06.21C3.76,52.76,8,34.63,9.93,30.44ZM20.71,63.68a34.75,34.75,0,0,1,1.13-4.11,32.84,32.84,0,0,1,10-14.69,28.84,28.84,0,0,1,9.23-5.2v30H20A35.65,35.65,0,0,1,20.71,63.68Zm62.83,21H16.43V72.49H42.48a1.41,1.41,0,0,0,1.41-1.41V34.68H56.08v36.4a1.41,1.41,0,0,0,1.41,1.41H83.55Zm-24.64-15v-30a28.85,28.85,0,0,1,9.23,5.2,31.63,31.63,0,0,1,5.57,6,34.13,34.13,0,0,1,5.55,12.77,35.58,35.58,0,0,1,.74,6Z"/><path d="M21.84,74.41a4.4,4.4,0,1,0,4.4,4.4A4.4,4.4,0,0,0,21.84,74.41Zm0,6a1.57,1.57,0,1,1,1.57-1.57A1.57,1.57,0,0,1,21.84,80.38Z"/><path d="M40.65,74.41a4.4,4.4,0,1,0,4.4,4.4A4.4,4.4,0,0,0,40.65,74.41Zm0,6a1.57,1.57,0,1,1,1.57-1.57A1.57,1.57,0,0,1,40.65,80.38Z"/><path d="M59.45,74.41a4.4,4.4,0,1,0,4.4,4.4A4.4,4.4,0,0,0,59.45,74.41Zm0,6A1.57,1.57,0,1,1,61,78.81,1.57,1.57,0,0,1,59.45,80.38Z"/><path d="M50,63.59a4.4,4.4,0,1,0,4.4,4.4A4.4,4.4,0,0,0,50,63.59Zm0,6A1.57,1.57,0,1,1,51.56,68,1.57,1.57,0,0,1,50,69.56Z"/><path d="M50,50a4.4,4.4,0,1,0,4.4,4.4A4.4,4.4,0,0,0,50,50Zm0,6a1.57,1.57,0,1,1,1.57-1.57A1.57,1.57,0,0,1,50,55.95Z"/><path d="M50,36.37a4.4,4.4,0,1,0,4.4,4.4A4.4,4.4,0,0,0,50,36.37Zm0,6a1.57,1.57,0,1,1,1.57-1.57A1.57,1.57,0,0,1,50,42.34Z"/><path d="M78.26,74.41a4.4,4.4,0,1,0,4.4,4.4A4.4,4.4,0,0,0,78.26,74.41Zm0,6a1.57,1.57,0,1,1,1.57-1.57A1.57,1.57,0,0,1,78.26,80.38Z"/></svg>